<svg width="104" height="75" viewBox="0 0 104 75" fill="none" xmlns="http://www.w3.org/2000/svg">
<path d="M86.35 43.96C86.35 43.96 86.34 44.01 86.33 44.04L85.95 44.93C84.72 47.82 81.9 49.69 78.76 49.69H56.99H28.25L27.93 49.67C25.05 49.52 22.37 48.26 20.39 46.21L7.60001 51.46C11.75 58.08 18.95 62.59 27.22 63.02V63.06H78.76C87.53 63.06 95.05 57.72 98.26 50.13L86.34 43.96H86.35Z" fill="url(#paint0_linear_31_85)"/>
<g style="mix-blend-mode:soft-light">
<path d="M53.84 0.5C66.77 0.5 78.14 9.21 80.88 21.21L80.96 21.55L81.31 21.59C91.65 22.85 99.45 31.69 99.45 42.14C99.45 44.74 98.97 47.27 98.03 49.68H97.93L97.82 49.96C94.57 57.61 87.1 62.56 78.79 62.57H63.24L63.88 63.37L65.74 65.71C66.15 66.23 66.23 66.9 65.94 67.5C65.65 68.1 65.08 68.46 64.42 68.46H39.4C38.73 68.46 38.17 68.1 37.88 67.5C37.59 66.9 37.67 66.23 38.08 65.71L39.94 63.37L40.58 62.57H27.75L27.28 62.54C19.45 62.13 12.27 57.91 8.08001 51.25L7.94001 51.04H7.78001C5.54001 47.29 4.36001 43 4.36001 38.62C4.36001 25.27 15.23 14.4 28.58 14.39H28.87L29.01 14.13C33.51 5.98 43.49 0.5 53.84 0.5ZM53.84 0C43.49 0 33.24 5.43 28.57 13.89C14.93 13.89 3.85001 24.97 3.85001 38.61C3.85001 43.33 5.18001 47.75 7.48001 51.5H7.64001C11.79 58.1 18.98 62.59 27.23 63.03V63.07H39.53L37.67 65.41C36.53 66.84 37.55 68.96 39.38 68.96H64.4C66.23 68.96 67.25 66.84 66.11 65.41L64.25 63.07H78.77C87.53 63.07 95.04 57.74 98.26 50.16H98.36C99.37 47.68 99.93 44.98 99.93 42.14C99.93 31.32 91.83 22.37 81.36 21.09C78.58 8.9 66.89 0 53.84 0Z" fill="url(#paint1_linear_31_85)"/>
</g>
<g style="mix-blend-mode:soft-light">
<path d="M53.28 13.11C62.92 13.11 70.73 20.92 70.73 30.56C70.73 31.35 70.67 32.14 70.57 32.9H78.38C83.01 32.9 86.76 36.65 86.76 41.28C86.76 42.14 86.63 42.97 86.39 43.75C86.37 43.85 86.35 43.94 86.33 44.04L85.95 44.93C84.72 47.82 81.9 49.69 78.76 49.69H56.99H28.25L27.93 49.67C24.27 49.48 20.91 47.5 18.95 44.38L18.14 43.1C17.53 41.68 17.22 40.17 17.22 38.61C17.22 32.35 22.31 27.26 28.57 27.26H36.14C37.68 19.2 44.77 13.1 53.28 13.1M53.28 12.61C44.82 12.61 37.51 18.54 35.74 26.76H28.58C22.05 26.76 16.73 32.08 16.73 38.61C16.73 40.24 17.05 41.82 17.69 43.3L17.71 43.34L17.73 43.37L18.54 44.65C20.59 47.91 24.1 49.97 27.92 50.17L28.24 50.19H57H78.77C82.11 50.19 85.11 48.2 86.41 45.13L86.79 44.24V44.2L86.81 44.16C86.83 44.08 86.85 43.99 86.87 43.91V43.85C87.13 43.05 87.26 42.17 87.26 41.28C87.26 36.39 83.28 32.41 78.39 32.41H71.13C71.2 31.78 71.23 31.16 71.23 30.56C71.23 20.66 63.18 12.61 53.28 12.61Z" fill="url(#paint2_linear_31_85)"/>
</g>
<g filter="url(#filter0_d_31_85)">
<path d="M81.37 21.1L70.08 25.79C70.51 27.31 70.75 28.91 70.75 30.56C70.75 31.35 70.69 32.14 70.59 32.9H78.4C83.03 32.9 86.78 36.65 86.78 41.28C86.78 42.14 86.65 42.97 86.41 43.75C86.4 43.81 86.38 43.88 86.37 43.94L98.38 50.14C99.39 47.67 99.95 44.97 99.95 42.14C99.95 31.32 91.85 22.37 81.38 21.09L81.37 21.1Z" fill="url(#paint3_linear_31_85)"/>
</g>
<g filter="url(#filter1_d_31_85)">
<path d="M18.96 44.39L18.15 43.11C17.54 41.69 17.23 40.18 17.23 38.62C17.23 32.36 22.32 27.27 28.58 27.27H36.15C36.69 24.44 37.92 21.85 39.65 19.69L28.58 13.9C14.94 13.9 3.86002 24.98 3.86002 38.62C3.86002 43.34 5.19002 47.76 7.49002 51.51L20.4 46.22C19.87 45.67 19.38 45.06 18.97 44.39H18.96Z" fill="url(#paint4_linear_31_85)"/>
</g>
<path d="M53.28 13.11C61.26 13.11 67.99 18.47 70.07 25.79L81.36 21.1C78.58 8.9 66.89 0 53.84 0C43.49 0 33.24 5.43 28.57 13.89L39.64 19.68C42.84 15.67 47.76 13.1 53.28 13.1V13.11Z" fill="url(#paint5_linear_31_85)"/>
<g style="mix-blend-mode:soft-light">
<path d="M53.84 0.5C66.77 0.5 78.14 9.21 80.88 21.21L80.96 21.55L81.31 21.59C91.65 22.85 99.45 31.69 99.45 42.14C99.45 44.74 98.97 47.27 98.03 49.68H97.93L97.82 49.96C94.57 57.61 87.1 62.56 78.79 62.57H63.24L63.88 63.37L65.74 65.71C66.15 66.23 66.23 66.9 65.94 67.5C65.65 68.1 65.08 68.46 64.42 68.46H39.4C38.73 68.46 38.17 68.1 37.88 67.5C37.59 66.9 37.67 66.23 38.08 65.71L39.94 63.37L40.58 62.57H27.75L27.28 62.54C19.45 62.13 12.27 57.91 8.08001 51.25L7.94001 51.04H7.78001C5.54001 47.29 4.36001 43 4.36001 38.62C4.36001 25.27 15.23 14.4 28.58 14.39H28.87L29.01 14.13C33.51 5.98 43.49 0.5 53.84 0.5ZM53.84 0C43.49 0 33.24 5.43 28.57 13.89C14.93 13.89 3.85001 24.97 3.85001 38.61C3.85001 43.33 5.18001 47.75 7.48001 51.5H7.64001C11.79 58.1 18.98 62.59 27.23 63.03V63.07H39.53L37.67 65.41C36.53 66.84 37.55 68.96 39.38 68.96H64.4C66.23 68.96 67.25 66.84 66.11 65.41L64.25 63.07H78.77C87.53 63.07 95.04 57.74 98.26 50.16H98.36C99.37 47.68 99.93 44.98 99.93 42.14C99.93 31.32 91.83 22.37 81.36 21.09C78.58 8.9 66.89 0 53.84 0Z" fill="url(#paint6_linear_31_85)"/>
</g>
<g filter="url(#filter2_d_31_85)">
<path d="M50.19 46.14L37.68 64.75C36.54 66.45 37.56 68.95 39.39 68.95H64.41C66.24 68.95 67.26 66.44 66.12 64.75L53.61 46.14C52.73 44.84 51.06 44.84 50.19 46.14Z" fill="#CDFF4E"/>
</g>
<g style="mix-blend-mode:soft-light" filter="url(#filter3_d_31_85)">
<path d="M50.19 46.14L37.68 64.75C36.54 66.45 37.56 68.95 39.39 68.95H64.41C66.24 68.95 67.26 66.44 66.12 64.75L53.61 46.14C52.73 44.84 51.06 44.84 50.19 46.14Z" stroke="url(#paint7_linear_31_85)" stroke-width="0.54" stroke-miterlimit="10" style="mix-blend-mode:soft-light"/>
</g>
<defs>
<filter id="filter0_d_31_85" x="67.6" y="18.61" width="34.83" height="34.01" filterUnits="userSpaceOnUse" color-interpolation-filters="sRGB">
<feFlood flood-opacity="0" result="BackgroundImageFix"/>
<feColorMatrix in="SourceAlpha" type="matrix" values="0 0 0 0 0 0 0 0 0 0 0 0 0 0 0 0 0 0 127 0" result="hardAlpha"/>
<feOffset/>
<feGaussianBlur stdDeviation="1.24"/>
<feColorMatrix type="matrix" values="0 0 0 0 0.0156863 0 0 0 0 0.156863 0 0 0 0 0.223529 0 0 0 0.5 0"/>
<feBlend mode="normal" in2="BackgroundImageFix" result="effect1_dropShadow_31_85"/>
<feBlend mode="normal" in="SourceGraphic" in2="effect1_dropShadow_31_85" result="shape"/>
</filter>
<filter id="filter1_d_31_85" x="1.38002" y="11.42" width="40.75" height="42.57" filterUnits="userSpaceOnUse" color-interpolation-filters="sRGB">
<feFlood flood-opacity="0" result="BackgroundImageFix"/>
<feColorMatrix in="SourceAlpha" type="matrix" values="0 0 0 0 0 0 0 0 0 0 0 0 0 0 0 0 0 0 127 0" result="hardAlpha"/>
<feOffset/>
<feGaussianBlur stdDeviation="1.24"/>
<feColorMatrix type="matrix" values="0 0 0 0 0.0156863 0 0 0 0 0.156863 0 0 0 0 0.223529 0 0 0 0.5 0"/>
<feBlend mode="normal" in2="BackgroundImageFix" result="effect1_dropShadow_31_85"/>
<feBlend mode="normal" in="SourceGraphic" in2="effect1_dropShadow_31_85" result="shape"/>
</filter>
<filter id="filter2_d_31_85" x="34.5003" y="43.815" width="34.7995" height="29.185" filterUnits="userSpaceOnUse" color-interpolation-filters="sRGB">
<feFlood flood-opacity="0" result="BackgroundImageFix"/>
<feColorMatrix in="SourceAlpha" type="matrix" values="0 0 0 0 0 0 0 0 0 0 0 0 0 0 0 0 0 0 127 0" result="hardAlpha"/>
<feOffset dy="1.35"/>
<feGaussianBlur stdDeviation="1.35"/>
<feColorMatrix type="matrix" values="0 0 0 0 0.0156863 0 0 0 0 0.156863 0 0 0 0 0.223529 0 0 0 0.51 0"/>
<feBlend mode="normal" in2="BackgroundImageFix" result="effect1_dropShadow_31_85"/>
<feBlend mode="normal" in="SourceGraphic" in2="effect1_dropShadow_31_85" result="shape"/>
</filter>
<filter id="filter3_d_31_85" x="34.2303" y="43.545" width="35.3395" height="29.725" filterUnits="userSpaceOnUse" color-interpolation-filters="sRGB">
<feFlood flood-opacity="0" result="BackgroundImageFix"/>
<feColorMatrix in="SourceAlpha" type="matrix" values="0 0 0 0 0 0 0 0 0 0 0 0 0 0 0 0 0 0 127 0" result="hardAlpha"/>
<feOffset dy="1.35"/>
<feGaussianBlur stdDeviation="1.35"/>
<feColorMatrix type="matrix" values="0 0 0 0 0.0156863 0 0 0 0 0.156863 0 0 0 0 0.223529 0 0 0 0.51 0"/>
<feBlend mode="normal" in2="BackgroundImageFix" result="effect1_dropShadow_31_85"/>
<feBlend mode="normal" in="SourceGraphic" in2="effect1_dropShadow_31_85" result="shape"/>
</filter>
<linearGradient id="paint0_linear_31_85" x1="7.62001" y1="53.52" x2="98.28" y2="53.52" gradientUnits="userSpaceOnUse">
<stop stop-color="#1E9DB8"/>
<stop offset="0.03" stop-color="#239CB8"/>
<stop offset="0.26" stop-color="#5299BD"/>
<stop offset="0.47" stop-color="#7797C1"/>
<stop offset="0.68" stop-color="#9196C4"/>
<stop offset="0.86" stop-color="#A195C6"/>
<stop offset="1" stop-color="#A795C7"/>
</linearGradient>
<linearGradient id="paint1_linear_31_85" x1="51.9" y1="0" x2="51.9" y2="68.95" gradientUnits="userSpaceOnUse">
<stop stop-color="white"/>
<stop offset="0.17" stop-color="white" stop-opacity="0.74"/>
<stop offset="0.33" stop-color="white" stop-opacity="0.52"/>
<stop offset="0.49" stop-color="white" stop-opacity="0.33"/>
<stop offset="0.64" stop-color="white" stop-opacity="0.19"/>
<stop offset="0.78" stop-color="white" stop-opacity="0.08"/>
<stop offset="0.9" stop-color="white" stop-opacity="0.02"/>
<stop offset="1" stop-color="white" stop-opacity="0"/>
</linearGradient>
<linearGradient id="paint2_linear_31_85" x1="52" y1="50.19" x2="52" y2="12.61" gradientUnits="userSpaceOnUse">
<stop stop-color="white"/>
<stop offset="0.17" stop-color="white" stop-opacity="0.74"/>
<stop offset="0.33" stop-color="white" stop-opacity="0.52"/>
<stop offset="0.49" stop-color="white" stop-opacity="0.33"/>
<stop offset="0.64" stop-color="white" stop-opacity="0.19"/>
<stop offset="0.78" stop-color="white" stop-opacity="0.08"/>
<stop offset="0.9" stop-color="white" stop-opacity="0.02"/>
<stop offset="1" stop-color="white" stop-opacity="0"/>
</linearGradient>
<linearGradient id="paint3_linear_31_85" x1="99.94" y1="35.62" x2="70.07" y2="35.62" gradientUnits="userSpaceOnUse">
<stop stop-color="#1E9DB8"/>
<stop offset="0.23" stop-color="#40B0A2" stop-opacity="0.99"/>
<stop offset="0.72" stop-color="#98E16D" stop-opacity="0.96"/>
<stop offset="1" stop-color="#CDFF4E" stop-opacity="0.95"/>
</linearGradient>
<linearGradient id="paint4_linear_31_85" x1="3.86002" y1="32.7" x2="39.64" y2="32.7" gradientUnits="userSpaceOnUse">
<stop stop-color="#1E9DB8"/>
<stop offset="0.23" stop-color="#40B0A2" stop-opacity="0.99"/>
<stop offset="0.72" stop-color="#98E16D" stop-opacity="0.96"/>
<stop offset="1" stop-color="#CDFF4E" stop-opacity="0.95"/>
</linearGradient>
<linearGradient id="paint5_linear_31_85" x1="28.57" y1="12.9" x2="81.37" y2="12.9" gradientUnits="userSpaceOnUse">
<stop stop-color="#1E9DB8"/>
<stop offset="0.03" stop-color="#239CB8"/>
<stop offset="0.26" stop-color="#5299BD"/>
<stop offset="0.47" stop-color="#7797C1"/>
<stop offset="0.68" stop-color="#9196C4"/>
<stop offset="0.86" stop-color="#A195C6"/>
<stop offset="1" stop-color="#A795C7"/>
</linearGradient>
<linearGradient id="paint6_linear_31_85" x1="51.9" y1="0" x2="51.9" y2="68.95" gradientUnits="userSpaceOnUse">
<stop stop-color="white"/>
<stop offset="0.17" stop-color="white" stop-opacity="0.74"/>
<stop offset="0.33" stop-color="white" stop-opacity="0.52"/>
<stop offset="0.49" stop-color="white" stop-opacity="0.33"/>
<stop offset="0.64" stop-color="white" stop-opacity="0.19"/>
<stop offset="0.78" stop-color="white" stop-opacity="0.08"/>
<stop offset="0.9" stop-color="white" stop-opacity="0.02"/>
<stop offset="1" stop-color="white" stop-opacity="0"/>
</linearGradient>
<linearGradient id="paint7_linear_31_85" x1="51.9" y1="69.22" x2="51.9" y2="44.89" gradientUnits="userSpaceOnUse">
<stop stop-color="white"/>
<stop offset="0.17" stop-color="white" stop-opacity="0.74"/>
<stop offset="0.33" stop-color="white" stop-opacity="0.52"/>
<stop offset="0.49" stop-color="white" stop-opacity="0.33"/>
<stop offset="0.64" stop-color="white" stop-opacity="0.19"/>
<stop offset="0.78" stop-color="white" stop-opacity="0.08"/>
<stop offset="0.9" stop-color="white" stop-opacity="0.02"/>
<stop offset="1" stop-color="white" stop-opacity="0"/>
</linearGradient>
</defs>
</svg>
