<svg width="70" height="84" viewBox="0 0 70 84" fill="none" xmlns="http://www.w3.org/2000/svg">
<g clip-path="url(#clip0_31_69)">
<path d="M65.29 80.11H49.63V4.14C49.63 1.85 51.49 0 53.77 0H65.29C67.58 0 69.43 1.86 69.43 4.14V75.96C69.43 78.25 67.57 80.1 65.29 80.1V80.11Z" fill="url(#paint0_linear_31_69)"/>
<path d="M4.14 80.11H19.8V26.58H4.14C1.86 26.58 0 28.44 0 30.73V75.97C0 78.26 1.86 80.11 4.14 80.11Z" fill="url(#paint1_linear_31_69)"/>
<g style="mix-blend-mode:overlay" opacity="0.25">
<path d="M69.43 32.82H49.62V4.14C49.62 1.85 51.48 0 53.76 0H65.28C67.57 0 69.42 1.86 69.42 4.14V32.81L69.43 32.82Z" fill="white"/>
</g>
<g filter="url(#filter0_d_31_69)">
<path d="M44.62 80.11H24.81V16.52C24.81 14.23 26.67 12.38 28.95 12.38H44.61V80.11H44.62Z" fill="url(#paint2_linear_31_69)"/>
</g>
<g style="mix-blend-mode:overlay" opacity="0.25">
<path d="M44.62 54.39H24.81V80.11H44.62V54.39Z" fill="white"/>
</g>
<g style="mix-blend-mode:overlay" opacity="0.25">
<path d="M44.62 54.39H24.81V54.76H44.62V54.39Z" fill="white"/>
</g>
<g style="mix-blend-mode:soft-light">
<path d="M49.62 32.45H69.35V32.82H49.62" fill="#042839"/>
</g>
</g>
<defs>
<filter id="filter0_d_31_69" x="22.33" y="9.9" width="24.77" height="72.69" filterUnits="userSpaceOnUse" color-interpolation-filters="sRGB">
<feFlood flood-opacity="0" result="BackgroundImageFix"/>
<feColorMatrix in="SourceAlpha" type="matrix" values="0 0 0 0 0 0 0 0 0 0 0 0 0 0 0 0 0 0 127 0" result="hardAlpha"/>
<feOffset/>
<feGaussianBlur stdDeviation="1.24"/>
<feColorMatrix type="matrix" values="0 0 0 0 0.0156863 0 0 0 0 0.156863 0 0 0 0 0.223529 0 0 0 0.51 0"/>
<feBlend mode="normal" in2="BackgroundImageFix" result="effect1_dropShadow_31_69"/>
<feBlend mode="normal" in="SourceGraphic" in2="effect1_dropShadow_31_69" result="shape"/>
</filter>
<linearGradient id="paint0_linear_31_69" x1="59.53" y1="80.11" x2="59.53" y2="0" gradientUnits="userSpaceOnUse">
<stop stop-color="#1E9DB8"/>
<stop offset="0.21" stop-color="#3EAFA4"/>
<stop offset="0.68" stop-color="#91DD71"/>
<stop offset="1" stop-color="#CDFF4E"/>
</linearGradient>
<linearGradient id="paint1_linear_31_69" x1="9.9" y1="80.11" x2="9.9" y2="26.58" gradientUnits="userSpaceOnUse">
<stop stop-color="#1E9DB8"/>
<stop offset="0.21" stop-color="#3EAFA4"/>
<stop offset="0.68" stop-color="#91DD71"/>
<stop offset="1" stop-color="#CDFF4E"/>
</linearGradient>
<linearGradient id="paint2_linear_31_69" x1="34.72" y1="80.11" x2="34.72" y2="12.38" gradientUnits="userSpaceOnUse">
<stop stop-color="#1E9DB8"/>
<stop offset="0.03" stop-color="#239CB8"/>
<stop offset="0.26" stop-color="#5299BD"/>
<stop offset="0.47" stop-color="#7797C1"/>
<stop offset="0.68" stop-color="#9196C4"/>
<stop offset="0.86" stop-color="#A195C6"/>
<stop offset="1" stop-color="#A795C7"/>
</linearGradient>
<clipPath id="clip0_31_69">
<rect width="69.43" height="83.98" fill="white"/>
</clipPath>
</defs>
</svg>
