<svg width="103" height="83" viewBox="0 0 103 83" fill="none" xmlns="http://www.w3.org/2000/svg">
<g clip-path="url(#clip0_31_101)">
<g style="mix-blend-mode:soft-light">
<path d="M51.28 0.74C58.66 0.74 64.66 6.74 64.66 14.12C64.66 21.5 58.66 27.5 51.28 27.5C43.9 27.5 37.9 21.5 37.9 14.12C37.9 6.74 43.9 0.74 51.28 0.74ZM84.21 6.83C90.04 6.83 94.79 11.58 94.79 17.41C94.79 23.24 90.04 27.99 84.21 27.99C78.38 27.99 73.63 23.24 73.63 17.41C73.63 11.58 78.38 6.83 84.21 6.83ZM18.34 6.83C24.17 6.83 28.92 11.58 28.92 17.41C28.92 23.24 24.17 27.99 18.34 27.99C12.51 27.99 7.75999 23.24 7.75999 17.41C7.75999 11.58 12.51 6.83 18.34 6.83ZM71.17 30.96H71.19H98.61C99.69 30.96 100.57 31.84 100.57 32.92V53.21C100.57 63.05 92.57 71.05 82.73 71.05C79.07 71.05 75.56 69.95 72.56 67.87L72.07 67.53L71.83 68.08C68.22 76.19 60.16 81.43 51.28 81.43C42.4 81.43 34.34 76.19 30.73 68.08L30.49 67.53L30 67.87C27 69.95 23.49 71.05 19.83 71.05C9.98999 71.05 1.98999 63.05 1.98999 53.21V32.92C1.98999 31.84 2.86999 30.96 3.94999 30.96H31.39H71.18M51.28 0.25C43.62 0.25 37.41 6.46 37.41 14.12C37.41 21.78 43.62 27.99 51.28 27.99C58.94 27.99 65.15 21.78 65.15 14.12C65.15 6.46 58.94 0.25 51.28 0.25ZM84.21 6.34C78.09 6.34 73.14 11.3 73.14 17.41C73.14 23.52 78.1 28.48 84.21 28.48C90.32 28.48 95.28 23.52 95.28 17.41C95.28 11.3 90.32 6.34 84.21 6.34ZM18.34 6.34C12.22 6.34 7.26999 11.3 7.26999 17.41C7.26999 23.52 12.23 28.48 18.34 28.48C24.45 28.48 29.41 23.52 29.41 17.41C29.41 11.3 24.45 6.34 18.34 6.34ZM71.17 30.46H31.38C31.38 30.46 31.37 30.46 31.36 30.46H3.93999C2.57999 30.46 1.48999 31.56 1.48999 32.91V53.2C1.48999 63.33 9.69999 71.54 19.83 71.54C23.72 71.54 27.32 70.33 30.28 68.27C33.86 76.31 41.91 81.92 51.28 81.92C60.65 81.92 68.7 76.31 72.28 68.27C75.25 70.33 78.85 71.54 82.73 71.54C92.86 71.54 101.07 63.33 101.07 53.2V32.91C101.07 31.55 99.97 30.46 98.62 30.46H71.2C71.2 30.46 71.19 30.46 71.18 30.46H71.17Z" fill="url(#paint0_linear_31_101)"/>
</g>
<g style="mix-blend-mode:soft-light">
<path d="M29.25 37.89V53.21C29.25 59.23 24.35 64.12 18.34 64.12C12.33 64.12 7.42999 59.23 7.42999 53.21V37.89H29.25ZM29.75 37.39H6.92999V53.2C6.92999 59.49 12.05 64.61 18.34 64.61C24.63 64.61 29.75 59.49 29.75 53.2V37.39Z" fill="url(#paint1_linear_31_101)"/>
</g>
<path fill-rule="evenodd" clip-rule="evenodd" d="M34.22 30.46H2.45C1.09 30.46 0 31.56 0 32.91V53.2C0 63.33 8.21 71.54 18.34 71.54C28.47 71.54 36.68 63.33 36.68 53.2V32.91C36.68 31.55 35.58 30.46 34.23 30.46H34.22ZM29.25 53.21C29.25 59.23 24.35 64.12 18.34 64.12C12.33 64.12 7.43 59.22 7.43 53.21V37.89H29.25V53.21Z" fill="url(#paint2_linear_31_101)"/>
<path fill-rule="evenodd" clip-rule="evenodd" d="M100.1 30.46H68.33C66.97 30.46 65.88 31.56 65.88 32.91V53.2C65.88 63.33 72.61 71.54 82.73 71.54C92.86 71.54 102.55 63.33 102.55 53.2V32.91C102.55 31.55 101.45 30.46 100.1 30.46ZM95.45 53.21C95.45 59.23 90.55 64.12 84.54 64.12C78.53 64.12 73.63 59.22 73.63 53.21V37.89H95.45V53.21Z" fill="url(#paint3_linear_31_101)"/>
<g style="mix-blend-mode:soft-light">
<path d="M95.45 37.89V53.21C95.45 59.23 90.55 64.12 84.54 64.12C78.53 64.12 73.63 59.23 73.63 53.21V37.89H95.45ZM95.95 37.39H73.14V53.2C73.14 59.49 78.26 64.61 84.55 64.61C90.84 64.61 95.96 59.49 95.96 53.2V37.39H95.95Z" fill="url(#paint4_linear_31_101)"/>
</g>
<path d="M84.21 28.48C90.3238 28.48 95.28 23.5238 95.28 17.41C95.28 11.2962 90.3238 6.34 84.21 6.34C78.0962 6.34 73.14 11.2962 73.14 17.41C73.14 23.5238 78.0962 28.48 84.21 28.48Z" fill="url(#paint5_linear_31_101)"/>
<path d="M18.34 28.48C24.4538 28.48 29.41 23.5238 29.41 17.41C29.41 11.2962 24.4538 6.34 18.34 6.34C12.2262 6.34 7.27002 11.2962 7.27002 17.41C7.27002 23.5238 12.2262 28.48 18.34 28.48Z" fill="url(#paint6_linear_31_101)"/>
<path fill-rule="evenodd" clip-rule="evenodd" d="M71.17 30.46H31.38C29.68 30.46 28.31 31.84 28.31 33.53V58.94C28.31 71.63 38.59 81.91 51.28 81.91C63.97 81.91 74.25 71.63 74.25 58.94V33.53C74.25 31.83 72.87 30.46 71.18 30.46H71.17ZM65.83 58.95C65.83 66.97 59.3 73.5 51.28 73.5C43.26 73.5 36.73 66.97 36.73 58.95V38.88H65.84V58.95H65.83Z" fill="url(#paint7_linear_31_101)"/>
<path d="M51.28 27.99C58.9402 27.99 65.15 21.7802 65.15 14.12C65.15 6.45981 58.9402 0.25 51.28 0.25C43.6198 0.25 37.41 6.45981 37.41 14.12C37.41 21.7802 43.6198 27.99 51.28 27.99Z" fill="url(#paint8_linear_31_101)"/>
<g style="mix-blend-mode:soft-light">
<path d="M71.17 30.96C72.59 30.96 73.75 32.12 73.75 33.54V58.96C73.75 71.35 63.67 81.44 51.27 81.44C38.87 81.44 28.79 71.36 28.79 58.96V33.54C28.79 32.12 29.95 30.96 31.37 30.96H71.16M71.17 30.46H31.38C29.68 30.46 28.31 31.84 28.31 33.53V58.95C28.31 71.64 38.59 81.92 51.28 81.92C63.97 81.92 74.25 71.64 74.25 58.95V33.53C74.25 31.83 72.87 30.46 71.18 30.46H71.17Z" fill="url(#paint9_linear_31_101)"/>
</g>
<g style="mix-blend-mode:soft-light">
<path d="M65.83 38.88V58.95C65.83 66.97 59.3 73.5 51.28 73.5C43.26 73.5 36.73 66.97 36.73 58.95V38.88H65.84M66.32 38.38H36.22V58.95C36.22 67.25 42.97 74 51.27 74C59.57 74 66.32 67.25 66.32 58.95V38.38Z" fill="url(#paint10_linear_31_101)"/>
</g>
</g>
<defs>
<linearGradient id="paint0_linear_31_101" x1="51.28" y1="0.25" x2="51.28" y2="81.92" gradientUnits="userSpaceOnUse">
<stop stop-color="white"/>
<stop offset="0.17" stop-color="white" stop-opacity="0.74"/>
<stop offset="0.33" stop-color="white" stop-opacity="0.52"/>
<stop offset="0.49" stop-color="white" stop-opacity="0.33"/>
<stop offset="0.64" stop-color="white" stop-opacity="0.19"/>
<stop offset="0.78" stop-color="white" stop-opacity="0.08"/>
<stop offset="0.9" stop-color="white" stop-opacity="0.02"/>
<stop offset="1" stop-color="white" stop-opacity="0"/>
</linearGradient>
<linearGradient id="paint1_linear_31_101" x1="18.34" y1="64.61" x2="18.34" y2="37.39" gradientUnits="userSpaceOnUse">
<stop stop-color="white"/>
<stop offset="0.17" stop-color="white" stop-opacity="0.74"/>
<stop offset="0.33" stop-color="white" stop-opacity="0.52"/>
<stop offset="0.49" stop-color="white" stop-opacity="0.33"/>
<stop offset="0.64" stop-color="white" stop-opacity="0.19"/>
<stop offset="0.78" stop-color="white" stop-opacity="0.08"/>
<stop offset="0.9" stop-color="white" stop-opacity="0.02"/>
<stop offset="1" stop-color="white" stop-opacity="0"/>
</linearGradient>
<linearGradient id="paint2_linear_31_101" x1="18.34" y1="71.55" x2="18.34" y2="30.46" gradientUnits="userSpaceOnUse">
<stop stop-color="#1E9DB8"/>
<stop offset="0.03" stop-color="#239CB8"/>
<stop offset="0.26" stop-color="#5299BD"/>
<stop offset="0.47" stop-color="#7797C1"/>
<stop offset="0.68" stop-color="#9196C4"/>
<stop offset="0.86" stop-color="#A195C6"/>
<stop offset="1" stop-color="#A795C7"/>
</linearGradient>
<linearGradient id="paint3_linear_31_101" x1="84.21" y1="-2.82873e-06" x2="84.21" y2="-2.82873e-06" gradientUnits="userSpaceOnUse">
<stop stop-color="#1E9DB8"/>
<stop offset="0.03" stop-color="#239CB8"/>
<stop offset="0.26" stop-color="#5299BD"/>
<stop offset="0.47" stop-color="#7797C1"/>
<stop offset="0.68" stop-color="#9196C4"/>
<stop offset="0.86" stop-color="#A195C6"/>
<stop offset="1" stop-color="#A795C7"/>
</linearGradient>
<linearGradient id="paint4_linear_31_101" x1="84.54" y1="64.61" x2="84.54" y2="37.39" gradientUnits="userSpaceOnUse">
<stop stop-color="white"/>
<stop offset="0.17" stop-color="white" stop-opacity="0.74"/>
<stop offset="0.33" stop-color="white" stop-opacity="0.52"/>
<stop offset="0.49" stop-color="white" stop-opacity="0.33"/>
<stop offset="0.64" stop-color="white" stop-opacity="0.19"/>
<stop offset="0.78" stop-color="white" stop-opacity="0.08"/>
<stop offset="0.9" stop-color="white" stop-opacity="0.02"/>
<stop offset="1" stop-color="white" stop-opacity="0"/>
</linearGradient>
<linearGradient id="paint5_linear_31_101" x1="84.21" y1="28.49" x2="84.21" y2="6.34" gradientUnits="userSpaceOnUse">
<stop stop-color="#1E9DB8"/>
<stop offset="0.03" stop-color="#239CB8"/>
<stop offset="0.26" stop-color="#5299BD"/>
<stop offset="0.47" stop-color="#7797C1"/>
<stop offset="0.68" stop-color="#9196C4"/>
<stop offset="0.86" stop-color="#A195C6"/>
<stop offset="1" stop-color="#A795C7"/>
</linearGradient>
<linearGradient id="paint6_linear_31_101" x1="18.34" y1="28.49" x2="18.34" y2="6.34" gradientUnits="userSpaceOnUse">
<stop stop-color="#1E9DB8"/>
<stop offset="0.03" stop-color="#239CB8"/>
<stop offset="0.26" stop-color="#5299BD"/>
<stop offset="0.47" stop-color="#7797C1"/>
<stop offset="0.68" stop-color="#9196C4"/>
<stop offset="0.86" stop-color="#A195C6"/>
<stop offset="1" stop-color="#A795C7"/>
</linearGradient>
<linearGradient id="paint7_linear_31_101" x1="51.28" y1="81.92" x2="51.28" y2="30.46" gradientUnits="userSpaceOnUse">
<stop stop-color="#1E9DB8"/>
<stop offset="0.21" stop-color="#3EAFA4"/>
<stop offset="0.68" stop-color="#91DD71"/>
<stop offset="1" stop-color="#CDFF4E"/>
</linearGradient>
<linearGradient id="paint8_linear_31_101" x1="51.28" y1="27.99" x2="51.28" y2="0.25" gradientUnits="userSpaceOnUse">
<stop stop-color="#1E9DB8"/>
<stop offset="0.21" stop-color="#3EAFA4"/>
<stop offset="0.68" stop-color="#91DD71"/>
<stop offset="1" stop-color="#CDFF4E"/>
</linearGradient>
<linearGradient id="paint9_linear_31_101" x1="-2.75939e-06" y1="30.46" x2="51.28" y2="-2.94937e-06" gradientUnits="userSpaceOnUse">
<stop stop-color="white"/>
<stop offset="0.17" stop-color="white" stop-opacity="0.74"/>
<stop offset="0.33" stop-color="white" stop-opacity="0.52"/>
<stop offset="0.49" stop-color="white" stop-opacity="0.33"/>
<stop offset="0.64" stop-color="white" stop-opacity="0.19"/>
<stop offset="0.78" stop-color="white" stop-opacity="0.08"/>
<stop offset="0.9" stop-color="white" stop-opacity="0.02"/>
<stop offset="1" stop-color="white" stop-opacity="0"/>
</linearGradient>
<linearGradient id="paint10_linear_31_101" x1="51.28" y1="74" x2="51.28" y2="38.38" gradientUnits="userSpaceOnUse">
<stop stop-color="white"/>
<stop offset="0.17" stop-color="white" stop-opacity="0.74"/>
<stop offset="0.33" stop-color="white" stop-opacity="0.52"/>
<stop offset="0.49" stop-color="white" stop-opacity="0.33"/>
<stop offset="0.64" stop-color="white" stop-opacity="0.19"/>
<stop offset="0.78" stop-color="white" stop-opacity="0.08"/>
<stop offset="0.9" stop-color="white" stop-opacity="0.02"/>
<stop offset="1" stop-color="white" stop-opacity="0"/>
</linearGradient>
<clipPath id="clip0_31_101">
<rect width="102.55" height="82.17" fill="white"/>
</clipPath>
</defs>
</svg>
